<?xml version="1.0" encoding="UTF-8" standalone="no"?>
<svg xmlns="http://www.w3.org/2000/svg"
     xmlns:svg="http://www.w3.org/2000/svg"
     version="1.1"
     width="4.32333in" height="4.08in"
     viewBox="0 0 1297 1224">
  <path id="Profil"
        fill="none" stroke="black" stroke-width="1"
        d="M 93.00,455.00
           C 93.00,455.00 93.00,119.00 93.00,119.00
             93.07,76.69 131.68,42.06 173.00,42.00
             173.00,42.00 506.00,42.00 506.00,42.00
             506.00,42.00 506.00,192.00 506.00,192.00
             506.00,192.00 366.00,192.00 366.00,192.00
             348.16,192.03 332.19,202.55 333.04,222.00
             333.58,234.37 341.90,240.90 350.00,249.00
             350.00,249.00 364.00,263.00 364.00,263.00
             364.00,263.00 455.00,354.00 455.00,354.00
             455.00,354.00 478.00,377.00 478.00,377.00
             485.40,384.40 485.66,387.98 496.00,388.00
             496.00,388.00 690.00,388.00 690.00,388.00
             690.00,388.00 795.00,388.00 795.00,388.00
             803.12,387.85 805.53,383.47 811.00,378.00
             811.00,378.00 837.00,352.00 837.00,352.00
             837.00,352.00 916.00,273.00 916.00,273.00
             916.00,273.00 939.00,250.00 939.00,250.00
             944.05,244.95 950.41,239.26 953.81,233.00
             961.01,219.74 954.45,202.92 941.71,195.66
             936.37,192.61 930.02,192.01 924.00,192.00
             924.00,192.00 784.00,192.00 784.00,192.00
             784.00,192.00 784.00,42.00 784.00,42.00
             784.00,42.00 1117.00,42.00 1117.00,42.00
             1160.62,42.07 1196.93,78.38 1197.00,122.00
             1197.00,122.00 1197.00,455.00 1197.00,455.00
             1197.00,455.00 1047.00,455.00 1047.00,455.00
             1047.00,455.00 1047.00,315.00 1047.00,315.00
             1046.99,309.78 1046.82,305.98 1044.88,301.00
             1038.84,285.49 1019.83,276.94 1005.00,285.76
             999.17,289.23 993.82,295.18 989.00,300.00
             989.00,300.00 965.00,324.00 965.00,324.00
             965.00,324.00 886.00,403.00 886.00,403.00
             886.00,403.00 863.00,426.00 863.00,426.00
             855.45,433.55 851.02,435.03 851.00,446.00
             851.00,446.00 851.00,640.00 851.00,640.00
             851.00,640.00 851.00,745.00 851.00,745.00
             851.15,752.74 855.69,754.70 861.00,760.00
             861.00,760.00 886.00,785.00 886.00,785.00
             886.00,785.00 977.00,876.00 977.00,876.00
             977.00,876.00 992.00,891.00 992.00,891.00
             1000.86,899.87 1006.17,906.56 1020.00,905.96
             1037.28,905.21 1046.98,889.91 1047.00,874.00
             1047.00,874.00 1047.00,734.00 1047.00,734.00
             1047.00,734.00 1197.00,734.00 1197.00,734.00
             1197.00,734.00 1197.00,1066.00 1197.00,1066.00
             1196.94,1107.37 1162.35,1145.93 1120.00,1146.00
             1120.00,1146.00 784.00,1146.00 784.00,1146.00
             784.00,1146.00 784.00,996.00 784.00,996.00
             784.00,996.00 926.00,996.00 926.00,996.00
             929.26,995.99 931.80,996.10 935.00,995.22
             947.47,991.76 957.81,979.21 956.90,966.00
             956.07,953.90 947.88,947.85 940.00,940.00
             940.00,940.00 925.00,925.00 925.00,925.00
             925.00,925.00 835.00,835.00 835.00,835.00
             835.00,835.00 813.00,813.00 813.00,813.00
             805.45,805.45 803.97,801.02 793.00,801.00
             793.00,801.00 599.00,801.00 599.00,801.00
             599.00,801.00 494.00,801.00 494.00,801.00
             485.88,801.15 483.47,805.53 478.00,811.00
             478.00,811.00 454.00,835.00 454.00,835.00
             454.00,835.00 363.00,926.00 363.00,926.00
             363.00,926.00 350.00,939.00 350.00,939.00
             341.17,947.83 332.49,955.49 333.04,969.00
             333.73,986.18 347.82,995.97 364.00,996.00
             364.00,996.00 506.00,996.00 506.00,996.00
             506.00,996.00 506.00,1146.00 506.00,1146.00
             506.00,1146.00 170.00,1146.00 170.00,1146.00
             129.61,1145.94 93.06,1109.39 93.00,1069.00
             93.00,1069.00 93.00,734.00 93.00,734.00
             93.00,734.00 243.00,734.00 243.00,734.00
             243.00,734.00 243.00,875.00 243.00,875.00
             243.03,892.68 254.44,906.77 273.00,905.96
             284.80,905.44 292.27,896.73 300.00,889.00
             300.00,889.00 314.00,875.00 314.00,875.00
             314.00,875.00 404.00,785.00 404.00,785.00
             404.00,785.00 428.00,761.00 428.00,761.00
             433.47,755.53 437.85,753.12 438.00,745.00
             438.00,745.00 438.00,640.00 438.00,640.00
             438.00,640.00 438.00,446.00 438.00,446.00
             437.98,435.03 433.55,433.55 426.00,426.00
             426.00,426.00 405.00,405.00 405.00,405.00
             405.00,405.00 312.00,312.00 312.00,312.00
             312.00,312.00 298.00,298.00 298.00,298.00
             289.76,289.67 283.04,281.29 270.00,282.09
             257.84,282.84 246.23,293.22 243.53,305.00
             242.92,307.62 243.00,310.33 243.00,313.00
             243.00,313.00 243.00,455.00 243.00,455.00
             243.00,455.00 93.00,455.00 93.00,455.00 Z
           M 638.00,499.28
           C 626.03,501.01 619.58,501.76 608.00,506.45
             584.65,515.91 565.82,535.80 556.45,559.00
             536.64,608.06 562.53,666.71 613.00,683.83
             620.59,686.40 631.00,688.90 639.00,689.00
             659.58,689.24 675.63,686.61 693.72,675.93
             701.55,671.30 708.18,664.99 714.58,658.61
             721.24,651.96 726.09,644.42 730.24,636.00
             756.18,583.40 728.53,521.14 673.00,503.34
             662.61,500.02 648.87,498.27 638.00,499.28 Z" />
</svg>
